<svg width="18" height="26" viewBox="0 0 18 26" fill="none" xmlns="http://www.w3.org/2000/svg">
<path d="M6.1939 11.9255C6.9367 12.6765 7.94592 13.1 9 13.1C9.52175 13.1 10.0382 12.9961 10.5198 12.7944C11.0013 12.5927 11.4384 12.2973 11.8061 11.9255C12.1738 11.5537 12.4651 11.1127 12.6636 10.628C12.8622 10.1433 12.9643 9.62414 12.9643 9.1C12.9643 8.04179 12.5486 7.02528 11.8061 6.27451C11.0633 5.52346 10.0541 5.1 9 5.1C7.94592 5.1 6.9367 5.52346 6.1939 6.27451C5.45139 7.02528 5.03571 8.04179 5.03571 9.1C5.03571 10.1582 5.45139 11.1747 6.1939 11.9255ZM9 24.8498C8.77815 24.5862 8.49906 24.2489 8.17864 23.8497C7.34447 22.8104 6.23344 21.3559 5.12386 19.6931C4.01288 18.0282 2.91243 16.1679 2.09196 14.3161C1.2672 12.4547 0.75 10.6562 0.75 9.1C0.75 6.88278 1.62118 4.75803 3.16929 3.19272C4.71712 1.62769 6.81465 0.75 9 0.75C11.1853 0.75 13.2829 1.62769 14.8307 3.19272C16.3788 4.75803 17.25 6.88278 17.25 9.1C17.25 10.6562 16.7328 12.4547 15.908 14.3161C15.0876 16.1679 13.9871 18.0282 12.8761 19.6931C11.7666 21.3559 10.6555 22.8104 9.82136 23.8497C9.50094 24.2489 9.22185 24.5862 9 24.8498Z" stroke="#545776" stroke-width="1.5"/>
</svg>
