<svg width="18" height="16" viewBox="0 0 18 16" fill="none" xmlns="http://www.w3.org/2000/svg">
<g clip-path="url(#clip0_13533_1879)">
<path d="M13.2098 7.81402C14.1455 7.91138 14.9927 7.31598 15.1022 6.48413C15.2116 5.65252 14.5419 4.89937 13.6061 4.80208C12.6704 4.70472 11.8231 5.30012 11.7139 6.13191C11.6042 6.96369 12.2741 7.71673 13.2098 7.81402Z" fill="#1DBEB4"/>
<path d="M5.78104 6.58095L8.31839 6.13056L8.86401 6.91057L6.88719 8.58147C7.19243 8.65003 7.48558 8.75209 7.75809 8.88561C7.88879 8.94964 8.01128 9.02362 8.12971 9.09509C8.32048 9.21026 8.49999 9.3211 8.67792 9.36452C8.81862 9.39886 9.003 9.40081 9.01471 9.40142C9.26532 9.3995 9.48612 9.33752 9.71149 9.20691C10.2976 8.86719 11.0171 8.51527 11.9094 8.48043C11.9752 8.47786 12.0418 8.47654 12.1072 8.47654C12.3934 8.47654 12.6733 8.50155 12.941 8.55001C12.7574 8.28943 9.48593 4.76559 9.48593 4.76559L9.39971 4.67391C9.1886 4.45087 8.83531 4.35757 8.50958 4.46368L5.42878 5.46811C5.13175 5.56466 4.94991 5.84176 5.0137 6.12596C5.08426 6.4399 5.42782 6.6436 5.78104 6.58095Z" fill="#1DBEB4"/>
<path d="M16.9959 10.0844C16.5759 10.2518 16.2628 10.3201 15.9152 10.3201C15.7782 10.3201 15.6366 10.3092 15.482 10.2867C14.9673 10.2051 14.6005 9.9409 14.2456 9.6854C14.0274 9.52826 13.8213 9.3798 13.5828 9.27052C13.1512 9.07165 12.6322 8.96658 12.0814 8.96658C12.0243 8.96658 11.9662 8.96777 11.9087 8.97003C11.1557 8.9994 10.545 9.29721 9.99719 9.61467C9.67583 9.801 9.29463 9.89042 8.94868 9.89042C8.84436 9.89042 8.63199 9.87007 8.49418 9.83473C8.2297 9.76694 8.00292 9.62997 7.7836 9.49764C7.67096 9.42958 7.56455 9.36537 7.45703 9.31269C6.99668 9.08709 6.46509 8.96783 5.91977 8.96783H5.90871C5.14525 8.97006 4.45478 9.1782 3.91205 9.56959C3.1563 10.1148 2.65755 10.268 2.51537 10.2895C2.51537 10.2895 2.39611 10.3173 2.14003 10.3173C1.64945 10.3173 1.23947 10.1744 0.827976 10.0153C0.538894 9.9036 0.266462 9.83946 0 9.82077C0.0516654 9.8473 0.101126 9.87501 0.149103 9.90427C0.35797 10.0337 0.529884 10.191 0.696057 10.3432C0.785017 10.4246 0.868997 10.5015 0.958223 10.5745C1.30756 10.8601 2.02856 11.1978 2.8584 11.1978C3.27948 11.1978 3.68691 11.1164 4.06925 10.9558C4.18174 10.9086 4.29127 10.8523 4.40718 10.7928C4.59951 10.6941 4.79929 10.5947 5.02066 10.5284C5.30001 10.4447 5.73364 10.4724 5.73364 10.4724C6.18323 10.498 6.51991 10.6868 6.76299 10.8485C7.50357 11.3409 8.20229 11.5733 8.96191 11.5798L9.00061 11.58C9.52327 11.58 10.0014 11.4905 10.422 11.3139C10.6178 11.2316 10.8043 11.1105 11.0018 10.9823C11.3727 10.7415 11.7563 10.4924 12.2503 10.4751C12.2797 10.4741 12.3095 10.4736 12.3399 10.4736C12.6104 10.4736 13.0177 10.5153 13.4219 10.7143C13.9085 10.9547 14.4971 11.2003 15.1763 11.2003C15.275 11.2003 15.3757 11.1952 15.4757 11.1851C16.1009 11.1222 16.6293 10.9174 17.0463 10.5762C17.1357 10.5031 17.2199 10.4259 17.309 10.3443C17.4991 10.1702 17.6956 9.99021 17.9438 9.85355C17.9624 9.84324 17.9811 9.83327 18 9.82357C17.7 9.8473 17.3822 9.93043 16.9959 10.0844Z" fill="#1DBEB4"/>
</g>
<defs>
<clipPath id="clip0_13533_1879">
<rect width="18" height="16" fill="white"/>
</clipPath>
</defs>
</svg>
